<?xml version="1.0" encoding="UTF-8" standalone="no"?>
<!-- Created with Inkscape (http://www.inkscape.org/) -->

<svg
   xmlns:dc="http://purl.org/dc/elements/1.1/"
   xmlns:cc="http://creativecommons.org/ns#"
   xmlns:rdf="http://www.w3.org/1999/02/22-rdf-syntax-ns#"
   xmlns:svg="http://www.w3.org/2000/svg"
   xmlns="http://www.w3.org/2000/svg"
   xmlns:xlink="http://www.w3.org/1999/xlink"
   xmlns:sodipodi="http://sodipodi.sourceforge.net/DTD/sodipodi-0.dtd"
   xmlns:inkscape="http://www.inkscape.org/namespaces/inkscape"
   width="744.09448819"
   height="1052.3622047"
   id="svg2"
   version="1.1"
   inkscape:version="0.48.4 r9939"
   sodipodi:docname="modelicaimport_large.svg">
  <defs
     id="defs4">
    <linearGradient
       id="linearGradient4039">
      <stop
         style="stop-color:#8f8f8f;stop-opacity:1;"
         offset="0"
         id="stop4041" />
      <stop
         style="stop-color:#000000;stop-opacity:1;"
         offset="1"
         id="stop4043" />
    </linearGradient>
    <linearGradient
       id="linearGradient4031">
      <stop
         style="stop-color:#2890dd;stop-opacity:1;"
         offset="0"
         id="stop4033" />
      <stop
         style="stop-color:#2890dd;stop-opacity:0;"
         offset="1"
         id="stop4035" />
    </linearGradient>
    <linearGradient
       inkscape:collect="always"
       xlink:href="#linearGradient4039"
       id="linearGradient4037"
       x1="272.5506"
       y1="406.20035"
       x2="402.81235"
       y2="405.69528"
       gradientUnits="userSpaceOnUse"
       gradientTransform="matrix(0.5077333,0,0,0.53425556,134.41371,164.94189)" />
    <linearGradient
       gradientTransform="matrix(1.5055393,1.5345959,-1.4975146,1.5428194,347.32077,367.70539)"
       inkscape:collect="always"
       xlink:href="#linearGradient2388"
       id="linearGradient2394"
       x1="13"
       y1="11"
       x2="23"
       y2="21"
       gradientUnits="userSpaceOnUse" />
    <linearGradient
       id="linearGradient2388">
      <stop
         style="stop-color:#82aad5;stop-opacity:1;"
         offset="0"
         id="stop2390" />
      <stop
         style="stop-color:#366aa2;stop-opacity:1;"
         offset="1"
         id="stop2392" />
    </linearGradient>
  </defs>
  <sodipodi:namedview
     id="base"
     pagecolor="#ffffff"
     bordercolor="#666666"
     borderopacity="1.0"
     inkscape:pageopacity="0.0"
     inkscape:pageshadow="2"
     inkscape:zoom="3.959798"
     inkscape:cx="393.0981"
     inkscape:cy="614.86082"
     inkscape:document-units="px"
     inkscape:current-layer="layer1"
     showgrid="false"
     inkscape:window-width="1920"
     inkscape:window-height="1138"
     inkscape:window-x="1912"
     inkscape:window-y="-8"
     inkscape:window-maximized="1" />
  <metadata
     id="metadata7">
    <rdf:RDF>
      <cc:Work
         rdf:about="">
        <dc:format>image/svg+xml</dc:format>
        <dc:type
           rdf:resource="http://purl.org/dc/dcmitype/StillImage" />
        <dc:title></dc:title>
      </cc:Work>
    </rdf:RDF>
  </metadata>
  <g
     inkscape:label="Layer 1"
     inkscape:groupmode="layer"
     id="layer1">
    <g
       id="g5044">
      <path
         inkscape:connector-curvature="0"
         id="path3261"
         d="m 273.05059,403.2792 24.208,-29.09785 16.13866,-15.26444 6.70934,-3.7207 4.44267,-0.57242 3.35466,0.66781 2.53866,2.95749 0.72534,2.28967 0.63466,2.09886 1.26934,-0.0954 4.80533,-3.91151 3.264,-1.90805 5.07733,-1.90806 1.99467,-0.38161 2.81066,0.28621 2.72001,1.81265 1.45066,2.76668 1.17867,2.95749 3.44533,-3.05289 6.61867,-3.91152 4.44267,-1.04943 2.53867,-0.0954 1.99466,0.47702 1.63199,1.43103 1.36001,2.09887 0.63467,1.81265 0.36266,2.67128 0.18133,2.00346 -1.08799,4.00691 -2.08534,5.34256 -9.15733,12.11615 6.70933,-14.88283 0.90667,-4.19772 -0.36267,-2.95749 -1.99466,-2.19426 -3.536,-0.76322 -3.62667,1.43103 -4.44267,3.72071 -8.88533,9.82649 -13.59999,18.79434 11.42399,-23.08747 1.36,-5.24715 -0.544,-2.48047 -2.08533,-2.00346 -2.992,-0.66782 -4.624,2.19426 -8.06934,7.53683 -8.79466,11.06672 -15.32267,21.75183 14.96,-28.71623 2.176,-5.43796 0.45334,-4.19773 -0.99734,-2.76668 -3.08266,-1.33563 -3.17334,0.47701 -2.90133,1.90806 -5.34933,4.67473 -13.78134,17.07709 -19.04,24.13691 z"
         style="fill:url(#linearGradient4037);fill-opacity:1;stroke:#000000;stroke-width:0;stroke-linecap:butt;stroke-linejoin:miter;stroke-miterlimit:4;stroke-opacity:1;stroke-dasharray:none" />
      <path
         id="path3354"
         d="m 362.30263,390.84134 c -1.69717,-1.43193 -4.18018,-1.2999 -5.72381,0.30416 l -3.93098,4.04991 -11.00926,-11.22173 c -1.66305,-1.69483 -4.35189,-1.68745 -6.00609,0.0174 l -17.40861,17.93527 c -1.65388,1.70423 -1.6467,4.45966 0.017,6.15484 l 11.00926,11.22173 -3.93098,4.0499 c -1.65386,1.70423 -1.64668,4.45965 0.017,6.15482 l 3.48155,3.54876 c 0.68341,0.69762 1.57816,1.13607 2.53709,1.24326 l 31.4007,3.52039 c 1.28304,0.14188 2.55948,-0.32158 3.46902,-1.25971 l 3.463,-3.56777 c 0.91061,-0.93708 1.3561,-2.24758 1.2107,-3.5616 l -3.60306,-32.15897 c -0.10979,-0.98208 -0.54236,-1.89666 -1.22677,-2.59324 l -3.48156,-3.54876 c -0.0896,-0.10054 -0.18368,-0.1965 -0.28229,-0.28772 z"
         style="fill:#204a87;fill-opacity:1;stroke:none"
         inkscape:connector-curvature="0" />
      <path
         id="path3358"
         d="m 359.59491,396.13809 -5.99005,6.17128 c -0.51695,0.53244 -1.35722,0.53477 -1.87692,0.004 l -13.07936,-13.33179 -15.53673,16.00675 13.07939,13.3318 c 0.51959,0.52971 0.52182,1.39079 0.004,1.92338 l -5.99006,6.17126 2.21125,2.25396 30.3211,3.37908 2.52706,-2.60351 -3.45944,-31.0534 -2.21125,-2.25395 z"
         style="fill:url(#linearGradient2394);fill-opacity:1;stroke:none"
         inkscape:connector-curvature="0" />
    </g>
  </g>
</svg>
