<?xml version="1.0" encoding="UTF-8" standalone="no"?>
<!-- Created with Inkscape (http://www.inkscape.org/) -->

<svg
   xmlns:osb="http://www.openswatchbook.org/uri/2009/osb"
   xmlns:dc="http://purl.org/dc/elements/1.1/"
   xmlns:cc="http://creativecommons.org/ns#"
   xmlns:rdf="http://www.w3.org/1999/02/22-rdf-syntax-ns#"
   xmlns:svg="http://www.w3.org/2000/svg"
   xmlns="http://www.w3.org/2000/svg"
   xmlns:xlink="http://www.w3.org/1999/xlink"
   xmlns:sodipodi="http://sodipodi.sourceforge.net/DTD/sodipodi-0.dtd"
   xmlns:inkscape="http://www.inkscape.org/namespaces/inkscape"
   width="652.5"
   height="945"
   id="svg2"
   version="1.1"
   inkscape:version="0.48.4 r9939"
   sodipodi:docname="JobManager.svg"
   inkscape:export-filename="C:\Users\snyako\JobManager.png"
   inkscape:export-xdpi="8.0088158"
   inkscape:export-ydpi="8.0088158">
  <defs
     id="defs4">
    <linearGradient
       id="linearGradient5674">
      <stop
         style="stop-color:#4879ae;stop-opacity:1;"
         offset="0"
         id="stop5676" />
      <stop
         style="stop-color:#82aad5;stop-opacity:1;"
         offset="1"
         id="stop5678" />
    </linearGradient>
    <linearGradient
       inkscape:collect="always"
       id="linearGradient5248"
       osb:paint="gradient">
      <stop
         style="stop-color:#204a87;stop-opacity:1"
         offset="0"
         id="stop5250" />
      <stop
         style="stop-color:#4b7cb0;stop-opacity:1"
         offset="1"
         id="stop5252" />
    </linearGradient>
    <inkscape:perspective
       sodipodi:type="inkscape:persp3d"
       inkscape:vp_x="0 : 526.18109 : 1"
       inkscape:vp_y="0 : 1000 : 0"
       inkscape:vp_z="744.09448 : 526.18109 : 1"
       inkscape:persp3d-origin="372.04724 : 350.78739 : 1"
       id="perspective2985" />
    <linearGradient
       gradientUnits="userSpaceOnUse"
       y2="21"
       x2="23"
       y1="11"
       x1="13"
       id="linearGradient2394"
       xlink:href="#linearGradient2388"
       inkscape:collect="always" />
    <linearGradient
       id="linearGradient2388">
      <stop
         id="stop2390"
         offset="0"
         style="stop-color:#82aad5;stop-opacity:1;" />
      <stop
         id="stop2392"
         offset="1"
         style="stop-color:#366aa2;stop-opacity:1;" />
    </linearGradient>
    <linearGradient
       inkscape:collect="always"
       xlink:href="#linearGradient5674"
       id="linearGradient5696"
       x1="165"
       y1="329.46429"
       x2="262.5"
       y2="329.46429"
       gradientUnits="userSpaceOnUse" />
    <linearGradient
       inkscape:collect="always"
       xlink:href="#linearGradient5674-5"
       id="linearGradient5696-4"
       x1="165"
       y1="329.46429"
       x2="262.5"
       y2="329.46429"
       gradientUnits="userSpaceOnUse" />
    <linearGradient
       id="linearGradient5674-5">
      <stop
         style="stop-color:#4879ae;stop-opacity:1;"
         offset="0"
         id="stop5676-8" />
      <stop
         style="stop-color:#82aad5;stop-opacity:1;"
         offset="1"
         id="stop5678-8" />
    </linearGradient>
    <linearGradient
       gradientTransform="matrix(-1,0,0,1,633.03571,109.32657)"
       y2="329.46429"
       x2="262.5"
       y1="329.46429"
       x1="165"
       gradientUnits="userSpaceOnUse"
       id="linearGradient5713"
       xlink:href="#linearGradient5674-5"
       inkscape:collect="always" />
    <linearGradient
       gradientUnits="userSpaceOnUse"
       y2="21"
       x2="23"
       y1="11"
       x1="13"
       id="linearGradient2394-2"
       xlink:href="#linearGradient2388-1"
       inkscape:collect="always" />
    <linearGradient
       id="linearGradient2388-1">
      <stop
         id="stop2390-4"
         offset="0"
         style="stop-color:#82aad5;stop-opacity:1;" />
      <stop
         id="stop2392-9"
         offset="1"
         style="stop-color:#366aa2;stop-opacity:1;" />
    </linearGradient>
    <linearGradient
       y2="21"
       x2="23"
       y1="11"
       x1="13"
       gradientUnits="userSpaceOnUse"
       id="linearGradient5750"
       xlink:href="#linearGradient2388-1"
       inkscape:collect="always" />
    <linearGradient
       y2="21"
       x2="23"
       y1="11"
       x1="13"
       gradientUnits="userSpaceOnUse"
       id="linearGradient5750-2"
       xlink:href="#linearGradient2388-1-9"
       inkscape:collect="always" />
    <linearGradient
       id="linearGradient2388-1-9">
      <stop
         id="stop2390-4-9"
         offset="0"
         style="stop-color:#82aad5;stop-opacity:1;" />
      <stop
         id="stop2392-9-8"
         offset="1"
         style="stop-color:#366aa2;stop-opacity:1;" />
    </linearGradient>
    <linearGradient
       y2="21"
       x2="23"
       y1="11"
       x1="13"
       gradientUnits="userSpaceOnUse"
       id="linearGradient5793"
       xlink:href="#linearGradient2388-1-9"
       inkscape:collect="always" />
    <linearGradient
       y2="21"
       x2="23"
       y1="11"
       x1="13"
       gradientUnits="userSpaceOnUse"
       id="linearGradient5793-8"
       xlink:href="#linearGradient2388-1-9-6"
       inkscape:collect="always" />
    <linearGradient
       id="linearGradient2388-1-9-6">
      <stop
         id="stop2390-4-9-6"
         offset="0"
         style="stop-color:#82aad5;stop-opacity:1;" />
      <stop
         id="stop2392-9-8-2"
         offset="1"
         style="stop-color:#366aa2;stop-opacity:1;" />
    </linearGradient>
    <linearGradient
       y2="21"
       x2="23"
       y1="11"
       x1="13"
       gradientUnits="userSpaceOnUse"
       id="linearGradient5836"
       xlink:href="#linearGradient2388-1-9-6"
       inkscape:collect="always" />
    <linearGradient
       y2="21"
       x2="23"
       y1="11"
       x1="13"
       gradientUnits="userSpaceOnUse"
       id="linearGradient5750-27"
       xlink:href="#linearGradient2388-1-5"
       inkscape:collect="always" />
    <linearGradient
       id="linearGradient2388-1-5">
      <stop
         id="stop2390-4-7"
         offset="0"
         style="stop-color:#82aad5;stop-opacity:1;" />
      <stop
         id="stop2392-9-82"
         offset="1"
         style="stop-color:#366aa2;stop-opacity:1;" />
    </linearGradient>
    <linearGradient
       y2="21"
       x2="23"
       y1="11"
       x1="13"
       gradientUnits="userSpaceOnUse"
       id="linearGradient5879"
       xlink:href="#linearGradient2388-1-5"
       inkscape:collect="always" />
  </defs>
  <sodipodi:namedview
     id="base"
     pagecolor="#ffffff"
     bordercolor="#666666"
     borderopacity="1.0"
     inkscape:pageopacity="0.0"
     inkscape:pageshadow="2"
     inkscape:zoom="0.98994949"
     inkscape:cx="480.98151"
     inkscape:cy="587.13136"
     inkscape:document-units="px"
     inkscape:current-layer="layer1"
     showgrid="false"
     inkscape:window-width="1920"
     inkscape:window-height="1138"
     inkscape:window-x="-8"
     inkscape:window-y="-8"
     inkscape:window-maximized="1" />
  <metadata
     id="metadata7">
    <rdf:RDF>
      <cc:Work
         rdf:about="">
        <dc:format>image/svg+xml</dc:format>
        <dc:type
           rdf:resource="http://purl.org/dc/dcmitype/StillImage" />
        <dc:title></dc:title>
      </cc:Work>
    </rdf:RDF>
  </metadata>
  <g
     inkscape:label="Layer 1"
     inkscape:groupmode="layer"
     id="layer1"
     transform="translate(0,-107.36229)">
    <path
       style="fill:url(#linearGradient5696);fill-opacity:1.0;stroke:#204a87;stroke-width:15;stroke-linecap:round;stroke-linejoin:round;stroke-miterlimit:4;stroke-opacity:1;stroke-dasharray:none;marker-start:none;marker-end:none"
       d="M 172.85715,169.28571 255,277.14285 254.28571,406.42857 172.5,489.64286"
       id="path3028"
       inkscape:connector-curvature="0"
       sodipodi:nodetypes="cccc"
       transform="translate(0,107.36229)" />
    <path
       style="fill:url(#linearGradient5713);fill-opacity:1;stroke:#204a87;stroke-width:15;stroke-linecap:round;stroke-linejoin:round;stroke-miterlimit:4;stroke-opacity:1;stroke-dasharray:none;marker-start:none;marker-end:none"
       d="m 460.17856,278.61228 -82.14285,107.85714 0.71429,129.28572 81.78571,83.21429"
       id="path3028-1"
       inkscape:connector-curvature="0"
       sodipodi:nodetypes="cccc" />
    <g
       id="layer1-9-8"
       inkscape:label="Calque 1"
       transform="matrix(0,2.8272236,-3.0929192,0,362.10468,333.52537)">
      <rect
         ry="0"
         y="12.5"
         x="16"
         height="0"
         width="6"
         id="rect3465-2"
         style="fill:#427bc3;fill-opacity:1;stroke:none" />
      <path
         id="path3354-4"
         d="m 12.5,2.5625 c -1.030711,0.097142 -1.816964,0.9647309 -1.8125,2 l 0,2.625 -7.3125,0 c -1.1045238,1.104e-4 -1.9998896,0.8954762 -2,2 l 0,11.625 c 1.104e-4,1.104524 0.8954762,1.99989 2,2 l 7.3125,0 0,2.625 c 1.1e-4,1.104524 0.895476,1.99989 2,2 l 2.3125,0 c 0.454258,3.39e-4 0.895101,-0.153956 1.25,-0.4375 l 11.625,-9.28125 c 0.474387,-0.379851 0.750351,-0.954775 0.75,-1.5625 l 0,-2.3125 c 3.51e-4,-0.607725 -0.275613,-1.182649 -0.75,-1.5625 L 16.25,3 C 15.895101,2.7164562 15.454258,2.562161 15,2.5625 l -2.3125,0 c -0.06247,-0.00293 -0.125034,-0.00293 -0.1875,0 z"
         style="fill:#204a87;fill-opacity:1;stroke:none"
         inkscape:connector-curvature="0" />
      <path
         id="path3358-5"
         d="m 13.3125,5.1875 0,4 c -3.5e-5,0.3451637 -0.279836,0.6249655 -0.625,0.625 l -8.6875,0 0,10.375 8.6875,0 c 0.345164,3.5e-5 0.624965,0.279836 0.625,0.625 l 0,4 1.46875,0 L 26,15.84375 26,14.15625 14.78125,5.1875 l -1.46875,0 z"
         style="fill:url(#linearGradient5750);fill-opacity:1;stroke:none"
         inkscape:connector-curvature="0" />
    </g>
    <g
       id="layer1-9-8-3"
       inkscape:label="Calque 1"
       transform="matrix(0,2.8272236,-3.0929192,0,362.81897,427.81107)">
      <rect
         ry="0"
         y="12.5"
         x="16"
         height="0"
         width="6"
         id="rect3465-2-8"
         style="fill:#427bc3;fill-opacity:1;stroke:none" />
      <path
         id="path3354-4-6"
         d="m 12.5,2.5625 c -1.030711,0.097142 -1.816964,0.9647309 -1.8125,2 l 0,2.625 -7.3125,0 c -1.1045238,1.104e-4 -1.9998896,0.8954762 -2,2 l 0,11.625 c 1.104e-4,1.104524 0.8954762,1.99989 2,2 l 7.3125,0 0,2.625 c 1.1e-4,1.104524 0.895476,1.99989 2,2 l 2.3125,0 c 0.454258,3.39e-4 0.895101,-0.153956 1.25,-0.4375 l 11.625,-9.28125 c 0.474387,-0.379851 0.750351,-0.954775 0.75,-1.5625 l 0,-2.3125 c 3.51e-4,-0.607725 -0.275613,-1.182649 -0.75,-1.5625 L 16.25,3 C 15.895101,2.7164562 15.454258,2.562161 15,2.5625 l -2.3125,0 c -0.06247,-0.00293 -0.125034,-0.00293 -0.1875,0 z"
         style="fill:#204a87;fill-opacity:1;stroke:none"
         inkscape:connector-curvature="0" />
      <path
         id="path3358-5-9"
         d="m 13.3125,5.1875 0,4 c -3.5e-5,0.3451637 -0.279836,0.6249655 -0.625,0.625 l -8.6875,0 0,10.375 8.6875,0 c 0.345164,3.5e-5 0.624965,0.279836 0.625,0.625 l 0,4 1.46875,0 L 26,15.84375 26,14.15625 14.78125,5.1875 l -1.46875,0 z"
         style="fill:url(#linearGradient5793);fill-opacity:1;stroke:none"
         inkscape:connector-curvature="0" />
    </g>
    <g
       id="layer1-9-8-3-3"
       inkscape:label="Calque 1"
       transform="matrix(0,2.8272236,-3.0929192,0,362.81896,516.38251)">
      <rect
         ry="0"
         y="12.5"
         x="16"
         height="0"
         width="6"
         id="rect3465-2-8-8"
         style="fill:#427bc3;fill-opacity:1;stroke:none" />
      <path
         id="path3354-4-6-2"
         d="m 12.5,2.5625 c -1.030711,0.097142 -1.816964,0.9647309 -1.8125,2 l 0,2.625 -7.3125,0 c -1.1045238,1.104e-4 -1.9998896,0.8954762 -2,2 l 0,11.625 c 1.104e-4,1.104524 0.8954762,1.99989 2,2 l 7.3125,0 0,2.625 c 1.1e-4,1.104524 0.895476,1.99989 2,2 l 2.3125,0 c 0.454258,3.39e-4 0.895101,-0.153956 1.25,-0.4375 l 11.625,-9.28125 c 0.474387,-0.379851 0.750351,-0.954775 0.75,-1.5625 l 0,-2.3125 c 3.51e-4,-0.607725 -0.275613,-1.182649 -0.75,-1.5625 L 16.25,3 C 15.895101,2.7164562 15.454258,2.562161 15,2.5625 l -2.3125,0 c -0.06247,-0.00293 -0.125034,-0.00293 -0.1875,0 z"
         style="fill:#204a87;fill-opacity:1;stroke:none"
         inkscape:connector-curvature="0" />
      <path
         id="path3358-5-9-6"
         d="m 13.3125,5.1875 0,4 c -3.5e-5,0.3451637 -0.279836,0.6249655 -0.625,0.625 l -8.6875,0 0,10.375 8.6875,0 c 0.345164,3.5e-5 0.624965,0.279836 0.625,0.625 l 0,4 1.46875,0 L 26,15.84375 26,14.15625 14.78125,5.1875 l -1.46875,0 z"
         style="fill:url(#linearGradient5836);fill-opacity:1;stroke:none"
         inkscape:connector-curvature="0" />
    </g>
    <g
       id="layer1-9-8-7"
       inkscape:label="Calque 1"
       transform="matrix(0,2.8272236,-3.0929192,0,361.55798,243.24815)">
      <rect
         ry="0"
         y="12.5"
         x="16"
         height="0"
         width="6"
         id="rect3465-2-80"
         style="fill:#427bc3;fill-opacity:1;stroke:none" />
      <path
         id="path3354-4-2"
         d="m 12.5,2.5625 c -1.030711,0.097142 -1.816964,0.9647309 -1.8125,2 l 0,2.625 -7.3125,0 c -1.1045238,1.104e-4 -1.9998896,0.8954762 -2,2 l 0,11.625 c 1.104e-4,1.104524 0.8954762,1.99989 2,2 l 7.3125,0 0,2.625 c 1.1e-4,1.104524 0.895476,1.99989 2,2 l 2.3125,0 c 0.454258,3.39e-4 0.895101,-0.153956 1.25,-0.4375 l 11.625,-9.28125 c 0.474387,-0.379851 0.750351,-0.954775 0.75,-1.5625 l 0,-2.3125 c 3.51e-4,-0.607725 -0.275613,-1.182649 -0.75,-1.5625 L 16.25,3 C 15.895101,2.7164562 15.454258,2.562161 15,2.5625 l -2.3125,0 c -0.06247,-0.00293 -0.125034,-0.00293 -0.1875,0 z"
         style="fill:#204a87;fill-opacity:1;stroke:none"
         inkscape:connector-curvature="0" />
      <path
         id="path3358-5-0"
         d="m 13.3125,5.1875 0,4 c -3.5e-5,0.3451637 -0.279836,0.6249655 -0.625,0.625 l -8.6875,0 0,10.375 8.6875,0 c 0.345164,3.5e-5 0.624965,0.279836 0.625,0.625 l 0,4 1.46875,0 L 26,15.84375 26,14.15625 14.78125,5.1875 l -1.46875,0 z"
         style="fill:url(#linearGradient5879);fill-opacity:1;stroke:none"
         inkscape:connector-curvature="0" />
    </g>
  </g>
</svg>
